<svg viewBox="0 0 512 512" width="2048" height="2048" xmlns="http://www.w3.org/2000/svg"><rect width="512" height="512" fill="#e4d7b8"/><g stroke="#b8a67e" stroke-width=".7" opacity=".55"><path d="M52,18 L52,494 M18,52 L494,52"/><path d="M97,18 L97,494 M18,97 L494,97"/><path d="M142,18 L142,494 M18,142 L494,142"/><path d="M187,18 L187,494 M18,187 L494,187"/><path d="M232,18 L232,494 M18,232 L494,232"/><path d="M277,18 L277,494 M18,277 L494,277"/><path d="M322,18 L322,494 M18,322 L494,322"/><path d="M367,18 L367,494 M18,367 L494,367"/><path d="M412,18 L412,494 M18,412 L494,412"/><path d="M457,18 L457,494 M18,457 L494,457"/></g><g stroke="#7a5a34" stroke-width="1" opacity=".5"><path d="M138,142 h8 M142,138 v8"/><path d="M318,232 h8 M322,228 v8"/><path d="M138,322 h8 M142,318 v8"/><path d="M93,187 h8 M97,183 v8"/></g><rect x="236" y="290" width="40" height="80" fill="#c68f62"/><rect x="236" y="290" width="40" height="16" fill="#9e6d43" opacity=".55"/><path d="M118,470 C122,410 174,380 256,380 C338,380 390,410 394,470 Z" fill="#4e6650"/><ellipse cx="185" cy="248" rx="11" ry="17" fill="#c68f62" stroke="#9e6d43" stroke-width="1.4"/><ellipse cx="327" cy="248" rx="11" ry="17" fill="#c68f62" stroke="#9e6d43" stroke-width="1.4"/><ellipse cx="256" cy="240" rx="72" ry="86" fill="#c68f62" stroke="#9e6d43" stroke-width="1.6"/><polygon points="236,382 276,382 256,408" fill="#ece4d0"/><clipPath id="cf"><path d="M256,155 A72,85 0 0 1 256,325 Z"/></clipPath><g clip-path="url(#cf)"><rect x="256" y="150" width="80" height="180" fill="#d8c9a0"/><ellipse cx="293" cy="233" rx="52" ry="44" fill="#c7c79a" opacity=".45" transform="rotate(-16 293 233)"/><ellipse cx="291" cy="235" rx="34" ry="28" fill="#b3c095" opacity=".5" transform="rotate(-16 293 233)"/><ellipse cx="289" cy="237" rx="18" ry="15" fill="#a9bc8a" opacity=".55" transform="rotate(-16 293 233)"/><ellipse cx="293.0" cy="233.0" rx="8.0" ry="6.4" fill="none" stroke="#6e5230" stroke-width="1.5" opacity="0.92" transform="rotate(-16 293 233)"/><ellipse cx="291.6" cy="234.0" rx="14.5" ry="11.6" fill="none" stroke="#6e5230" stroke-width="0.85" opacity="0.86" transform="rotate(-16 293 233)"/><ellipse cx="290.2" cy="235.0" rx="21.0" ry="16.8" fill="none" stroke="#6e5230" stroke-width="0.85" opacity="0.80" transform="rotate(-16 293 233)"/><ellipse cx="288.8" cy="236.0" rx="27.5" ry="22.0" fill="none" stroke="#6e5230" stroke-width="1.5" opacity="0.74" transform="rotate(-16 293 233)"/><ellipse cx="287.4" cy="237.0" rx="34.0" ry="27.2" fill="none" stroke="#6e5230" stroke-width="0.85" opacity="0.68" transform="rotate(-16 293 233)"/><ellipse cx="286.0" cy="238.0" rx="40.5" ry="32.4" fill="none" stroke="#6e5230" stroke-width="0.85" opacity="0.62" transform="rotate(-16 293 233)"/><ellipse cx="284.6" cy="239.0" rx="47.0" ry="37.6" fill="none" stroke="#6e5230" stroke-width="1.5" opacity="0.56" transform="rotate(-16 293 233)"/><ellipse cx="283.2" cy="240.0" rx="53.5" ry="42.8" fill="none" stroke="#6e5230" stroke-width="0.85" opacity="0.50" transform="rotate(-16 293 233)"/><ellipse cx="281.8" cy="241.0" rx="60.0" ry="48.0" fill="none" stroke="#6e5230" stroke-width="0.85" opacity="0.44" transform="rotate(-16 293 233)"/><ellipse cx="280.4" cy="242.0" rx="66.5" ry="53.2" fill="none" stroke="#6e5230" stroke-width="1.5" opacity="0.38" transform="rotate(-16 293 233)"/><path d="M304.0,233.0 L310.0,233.0" stroke="#6e5230" stroke-width=".8" opacity=".45"/><path d="M302.9,236.9 L308.3,239.1" stroke="#6e5230" stroke-width=".8" opacity=".45"/><path d="M299.9,240.0 L303.6,243.9" stroke="#6e5230" stroke-width=".8" opacity=".45"/><path d="M295.4,241.8 L296.8,246.6" stroke="#6e5230" stroke-width=".8" opacity=".45"/><path d="M290.6,241.8 L289.2,246.6" stroke="#6e5230" stroke-width=".8" opacity=".45"/><path d="M286.1,240.0 L282.4,243.9" stroke="#6e5230" stroke-width=".8" opacity=".45"/><path d="M283.1,236.9 L277.7,239.1" stroke="#6e5230" stroke-width=".8" opacity=".45"/><path d="M282.0,233.0 L276.0,233.0" stroke="#6e5230" stroke-width=".8" opacity=".45"/><path d="M283.1,229.1 L277.7,226.9" stroke="#6e5230" stroke-width=".8" opacity=".45"/><path d="M286.1,226.0 L282.4,222.1" stroke="#6e5230" stroke-width=".8" opacity=".45"/><path d="M290.6,224.2 L289.2,219.4" stroke="#6e5230" stroke-width=".8" opacity=".45"/><path d="M295.4,224.2 L296.8,219.4" stroke="#6e5230" stroke-width=".8" opacity=".45"/><path d="M299.9,226.0 L303.6,222.1" stroke="#6e5230" stroke-width=".8" opacity=".45"/><path d="M302.9,229.1 L308.3,226.9" stroke="#6e5230" stroke-width=".8" opacity=".45"/><path d="M287,228 l6,-11 l6,11 Z" fill="#8c2c1e"/><text x="299" y="220" font-family="IBM Plex Mono, monospace" font-size="8" fill="#5c3a20">312</text><circle cx="272" cy="300" r="1.6" fill="#5c3a20"/><text x="276" y="303" font-family="IBM Plex Mono, monospace" font-size="7.5" fill="#5c3a20">214</text><circle cx="316" cy="270" r="1.6" fill="#5c3a20"/><text x="299" y="266" font-family="IBM Plex Mono, monospace" font-size="7.5" fill="#5c3a20">188</text><path d="M300,286 q12,-6 20,3 q3,11 -8,14 q-15,1 -16,-9 q-1,-6 4,-8 Z" fill="#3f6f8f" opacity=".65"/><path d="M305,301 q-5,14 5,24 q7,9 -1,20" fill="none" stroke="#3f6f8f" stroke-width="1.5" opacity=".7"/><text x="264" y="198" font-family="Georgia, serif" font-size="8" font-style="italic" fill="#6e5230" transform="rotate(-14 264 198)">MT. PROVENANCE</text><text x="300" y="296" font-family="Georgia, serif" font-size="7.5" font-style="italic" fill="#3f6f8f">L. INDEX</text></g><path d="M256,150 L256,326" stroke="#7a5a34" stroke-width="1.2" stroke-dasharray="5 4" opacity=".8"/><ellipse cx="228" cy="238" rx="9" ry="10" fill="#f6f2e8"/><circle cx="228" cy="239" r="4" fill="#241d15"/><path d="M213,220 Q227,214 241,220" stroke="#241d15" stroke-width="3.2" stroke-linecap="round" fill="none"/><circle cx="284" cy="239" r="7" fill="#f6f2e8" opacity=".5"/><circle cx="284" cy="239" r="7" fill="none" stroke="#8c2c1e" stroke-width="1.8"/><circle cx="284" cy="239" r="2" fill="#8c2c1e"/><path d="M284,224 L284,254 M269,239 L299,239" stroke="#8c2c1e" stroke-width="1"/><path d="M289,244 L298,253" stroke="#8c2c1e" stroke-width="2.2"/><path d="M256,244 C258,254 258,260 251,264" stroke="#9e6d43" stroke-width="2.4" fill="none" stroke-linecap="round"/><path d="M237,292 L258,292" stroke="#241d15" stroke-width="2.6" stroke-linecap="round"/><path d="M258,292 L275,292" stroke="#7a5a34" stroke-width="1.6" stroke-dasharray="4 3"/><path d="M183,252 C179,158 214,144 256,144 L256,184 C236,184 220,188 207,198 C198,204 190,220 183,252 Z" fill="#3a2a1c"/><path d="M256,144 C298,144 333,158 329,252 C322,220 314,204 305,198 C292,188 276,184 256,184 Z" fill="none" stroke="#3a2a1c" stroke-width="1.4" stroke-dasharray="5 4"/><g transform="translate(410,106)"><circle r="38" fill="#e6d7b0" stroke="#7a5a34" stroke-width="1.4"/><circle r="31" fill="none" stroke="#7a5a34" stroke-width=".6" stroke-dasharray="2 3"/><g fill="#b08a52"><path d="M0,0 L20,-20 L5,-5 Z"/><path d="M0,0 L-20,-20 L-5,-5 Z"/><path d="M0,0 L20,20 L5,5 Z"/><path d="M0,0 L-20,20 L-5,5 Z"/></g><path d="M0,-35 L6,0 L0,5 Z" fill="#8c2c1e"/><path d="M0,-35 L-6,0 L0,5 Z" fill="#c14a38"/><path d="M0,35 L6,0 L0,-5 Z" fill="#4e6650"/><path d="M0,35 L-6,0 L0,-5 Z" fill="#6e8a6e"/><path d="M35,0 L0,6 L-5,0 Z" fill="#4e6650"/><path d="M35,0 L0,-6 L-5,0 Z" fill="#6e8a6e"/><path d="M-35,0 L0,6 L5,0 Z" fill="#4e6650"/><path d="M-35,0 L0,-6 L5,0 Z" fill="#6e8a6e"/><circle r="3" fill="#241d15"/><text y="-42" font-family="IBM Plex Mono, monospace" font-size="10" text-anchor="middle" fill="#7a5a34" font-weight="600">N</text></g><path d="M56,388 Q120,360 168,392 T286,398" fill="none" stroke="#8c2c1e" stroke-width="1.5" stroke-dasharray="6 4" opacity=".75"/><g fill="none" stroke="#8c2c1e" stroke-width="1.5"><circle cx="56" cy="388" r="3.5"/><circle cx="168" cy="392" r="3.5"/></g><path d="M280,392 l12,12 M292,392 l-12,12" stroke="#8c2c1e" stroke-width="2"/><g stroke="#241d15" stroke-width="2.2" fill="none" transform="translate(392,300) rotate(8)"><path d="M0,4 L-13,52 M0,4 L13,52"/><circle cx="0" cy="4" r="3.5" fill="#241d15"/><path d="M-13,52 l-3,7 M13,52 l3,7"/></g><g transform="translate(40,452)"><rect width="18" height="6" fill="#241d15"/><rect x="18" width="18" height="6" fill="none" stroke="#241d15" stroke-width="1"/><rect x="36" width="18" height="6" fill="#241d15"/><rect x="54" width="18" height="6" fill="none" stroke="#241d15" stroke-width="1"/><text x="0" y="-4" font-family="IBM Plex Mono, monospace" font-size="8" fill="#5c4a2c">0</text><text x="60" y="-4" font-family="IBM Plex Mono, monospace" font-size="8" fill="#5c4a2c">200m</text></g><text x="36" y="104" font-family="IBM Plex Mono, monospace" font-size="9" letter-spacing="1.2" fill="#7a5a34">42&#176;21'N &#183; 71&#176;04'W</text><text x="36" y="118" font-family="IBM Plex Mono, monospace" font-size="8" letter-spacing="1.2" fill="#7a5a34" opacity=".8">SCALE 1:10000</text><rect x="18" y="18" width="476" height="476" fill="none" stroke="#5c4a2c" stroke-width="2.4"/>
<rect x="26" y="26" width="460" height="460" fill="none" stroke="#5c4a2c" stroke-width=".8" opacity=".55"/>
<text x="34" y="47" font-family="IBM Plex Mono, monospace" font-size="11" letter-spacing="2.2" fill="#5c4a2c">MERGED PUBLIC &#8212; ARCHIVE</text>
<rect x="394" y="30" width="86" height="24" fill="none" stroke="#5c4a2c" stroke-width="1.6"/>
<text x="437" y="47" font-family="IBM Plex Mono, monospace" font-size="12.5" font-weight="600" text-anchor="middle" letter-spacing="1" fill="#5c4a2c">MP-0003</text>
<text x="34" y="484" font-family="IBM Plex Mono, monospace" font-size="9" letter-spacing="1.8" fill="#5c4a2c" opacity=".8">LEGENDARY &#183; 1 OF 1 &#183; THE CARTOGRAPHER</text>
<path d="M26,470 L486,470" stroke="#5c4a2c" stroke-width="1" opacity=".4"/></svg>